<svg id="Layer_1" data-name="Layer 1" xmlns="http://www.w3.org/2000/svg" viewBox="0 0 60 65"><defs><style>.cls-1{opacity:0.4;}.cls-2{fill:#fff;}.cls-3{fill:#0065ff;}</style></defs><title>Artboard 1</title><g class="cls-1"><rect y="5" width="60" height="60" rx="20" ry="20"/></g><rect class="cls-2" width="60" height="60" rx="20" ry="20"/><path class="cls-3" d="M20.9,43.25a2.59,2.59,0,0,1-2.25-3.86l12-21.32a2.58,2.58,0,1,1,4.5,2.53l-12,21.33A2.58,2.58,0,0,1,20.9,43.25Z"/><path class="cls-3" d="M33.08,43.25a2.64,2.64,0,0,1-1.27-.33,2.6,2.6,0,0,1-1-3.53l6-10.66a2.59,2.59,0,0,1,4.51,2.54l-6,10.66A2.56,2.56,0,0,1,33.08,43.25Z"/></svg>